<svg xmlns="http://www.w3.org/2000/svg" viewBox="0 0 500.01 452.61"><defs><style>.cls-1,.cls-3,.cls-4{fill:#fff;}.cls-2{fill:none;}.cls-2,.cls-4{stroke:#000;}.cls-2,.cls-3,.cls-4{stroke-miterlimit:10;}.cls-3{stroke:#fff;stroke-width:6px;}</style></defs><title>logo-white</title><g id="Layer_2" data-name="Layer 2"><path class="cls-1" d="M17.14,216.38h1.09q2.85,0,4.34,4v.74a2.28,2.28,0,0,1-1.43,2.06l-.23-.4a1.89,1.89,0,0,0,.23-.8c0-.73-.59-1.2-1.77-1.43-.65,0-1,.48-1.14,1.43v.4c0,1,.91,1.67,2.74,1.94q1.49,0,7.31-2.4a54.63,54.63,0,0,1,16.86-2.8A64,64,0,0,1,76,227.35Q86.33,233.52,96.21,248a94.69,94.69,0,0,1,6.68,11.6v.22c0,.12,0,.18-.17.18h-.28a63.69,63.69,0,0,0-10.17-8.46q-10.74-7-19.88-8.11a16.41,16.41,0,0,0-3.72-.34h-.51q-7.26,0-9.54,5a6.44,6.44,0,0,0-.46,2.34c0,.53.06.82.06.86a.21.21,0,0,0-.17.22l-.86-.11q-3.54,0-4.74,4.8a3.06,3.06,0,0,0-.12,1v.91a7,7,0,0,0,2.86,5.43,7.42,7.42,0,0,0,4.46,1.6h.17q1.83,0,1.83-1.14c-.12-1-.44-1.54-1-1.54-.26,0-.57.38-.91,1h-.17c-.23-.07-.34-.34-.34-.8v-.91a2.51,2.51,0,0,1,1.82-2.51,5.09,5.09,0,0,1,1.09-.17c1.18,0,2.23.74,3.14,2.22a4.48,4.48,0,0,1,3.54-1.94h.75q3.07,0,4.4,3.71a6.83,6.83,0,0,1,.22,1.6q0,2.4-3.31,3.6a7.34,7.34,0,0,1-.8.06h-.46a3,3,0,0,1-3-2.46l.28-.17h.17a3.74,3.74,0,0,0,1.66.8c1.14-.26,1.71-.74,1.71-1.43,0-1-.76-1.71-2.28-2.05-.73,0-1.54,1-2.46,3a8.1,8.1,0,0,1-6.74,3.2q-7.26,0-10.85-8.79a14.79,14.79,0,0,1-.46-3.15,9.13,9.13,0,0,1,.23-1.94q-8.34,6.57-20.45,6.57h-.58q-12,0-19.42-6.23a10.42,10.42,0,0,1-3.37-7.42q0-3.66,3.37-7.83a1.14,1.14,0,0,1,.57-.17c.46,0,.8.42,1,1.26,0,1.06-.06,1.77-.06,2.11a2.72,2.72,0,0,0,1.77,2.4,4.07,4.07,0,0,1,1.43,2.51,5.73,5.73,0,0,1,1.77-.34q2.58,0,3.37,3.09a3.9,3.9,0,0,0,.12.85,2.85,2.85,0,0,1-2.52,2.92.76.76,0,0,1-.17-.35,2.62,2.62,0,0,0,.63-1.37c-.27-.68-.65-1-1.14-1h-.34c-1.37.23-2.06.84-2.06,1.83q0,1.89,5.08,3.6a31.25,31.25,0,0,0,7.49,1h1.48a30,30,0,0,0,17.94-5.6q3.78-3.42,4.63-5.25,3.77-3.95,6.74-4.92a30.14,30.14,0,0,1,13.31-2.85V240a2.72,2.72,0,0,1-.57-1.6c.08-.3.17-.45.29-.45a3.56,3.56,0,0,0,3.48,1.88c1.26,0,2-.38,2.11-1.14l.12-.17c-.27-1.07-.8-1.6-1.6-1.6-.61,0-1,.55-1.26,1.66H71A3.25,3.25,0,0,1,69.64,236c0-1.82,1.28-2.93,3.83-3.31q2.63,0,4.11,3.43l.18,1.14a13.63,13.63,0,0,1-1.55,3.94h.12q9.54,2.58,20.51,11.66l2.57,2.57v-.06A64.31,64.31,0,0,0,93.35,246,59.38,59.38,0,0,0,82.84,235.8a66.6,66.6,0,0,0-9.08-5.25q-10.52-4.35-18.57-4.34c-3.66.07-5.69.83-6.11,2.28v.29a3.72,3.72,0,0,0,1.43,2.4v.17c0,.11-.06.17-.18.17h-.28a4.55,4.55,0,0,1-4.63-2.86l-.17-1A4.38,4.38,0,0,1,47,224.21h-.17q-4.51.39-11.71,3.6-5.43,3.13-5.43,7.88a5.92,5.92,0,0,0,3,5.37,5.55,5.55,0,0,0,2.29.51c1.82,0,2.93-.7,3.31-2.11v-.11c-.19-.88-.63-1.32-1.31-1.32a4.15,4.15,0,0,0-1.09.29l-.17-.29v-.46c0-.91.7-1.61,2.11-2.11h.46c1.33,0,2.3.92,2.91,2.74a4.69,4.69,0,0,1,.23,1.26q0,4.29-5.88,5.43l-1.43.11q-8.05,0-10.91-7.31a11.94,11.94,0,0,1-.63-2.8,4,4,0,0,1-3.37,1.71c-1.37-.07-2.13-.24-2.29-.51v-.17a1.66,1.66,0,0,0,.8-1.2v-.17c0-.54-.53-1.35-1.6-2.46a2.62,2.62,0,0,1-.28-1V231a6.7,6.7,0,0,1,.51-2.22c-1,0-2.19-.73-3.48-2.17A6,6,0,0,1,11.72,223v-.57q0-3.6,3.82-5.66A5.44,5.44,0,0,1,17.14,216.38Zm27.31,7.77v.06h.34v-.06Z" transform="translate(0 -23.7)"/><path class="cls-1" d="M105.81,209.87h.11v16c0,1.3,1.22,2.06,3.66,2.29h1.77c2.32.19,3.48,1,3.48,2.45a9.27,9.27,0,0,1,.12,1.66q0,9.83-2.23,11.77h-.06a21.21,21.21,0,0,0,1-7.08v-4.06c-.34-.53-1.22-.8-2.62-.8h-1.32a5.29,5.29,0,0,1-4.85-2.63,3.9,3.9,0,0,1-.18-1V211.92A2.7,2.7,0,0,1,105.81,209.87Zm45,56.84a3.47,3.47,0,0,1,2,3.49v16.16c0,2.1-1.17,3.47-3.49,4.12a9.19,9.19,0,0,1-1.6.17H109.52a5.06,5.06,0,0,1-4.68-2.63,3.2,3.2,0,0,1-.18-.8V269.17a2.78,2.78,0,0,1,1.15-1.89h.11v17.14c.34,1.52,1.47,2.29,3.37,2.29h37.88c2.43,0,3.65-.94,3.65-2.8V268C150.82,267.72,150.8,267.28,150.77,266.71Zm-9.43-58.16h1.49a25.25,25.25,0,0,1,15.31,5.2q4.11,3.44,4.11,11.83V236q0,5.39-7.2,8.75a38.09,38.09,0,0,1-11,2.05c-2.09.19-5.6.38-10.51.57q-3.82,1-3.83,3.72v11.59q0,3.09,4.86,3.77h12.63a2.66,2.66,0,0,1,2.28.86v16.85c-.15.73-.82,1.09-2,1.09H109.69a2.43,2.43,0,0,1-2.23-.91v-17a2.67,2.67,0,0,1,2.29-.86h1.6a5.33,5.33,0,0,0,4.74-2.28,3.63,3.63,0,0,0,.4-1.66V258q0-9.77-2.8-12.51v-.12a10.51,10.51,0,0,0,2.29-5.19,37.05,37.05,0,0,0,.51-7.43V230.6q0-2.62-3-3.59a5.46,5.46,0,0,0-2-.35h-1.55a2.82,2.82,0,0,1-2.4-.91V209.87c0-.31.71-.59,2.12-.86a58.41,58.41,0,0,0,12.74,1.43,105.75,105.75,0,0,0,16.56-1.72A10.72,10.72,0,0,1,141.34,208.55ZM111.58,245.8a4.67,4.67,0,0,1,2,2.51q1.32,2.81,1.32,10.06v2.51q0,.75-.12,2.4-.85,1.14-1.14,1.14h-.06v-5.48q0-7.89-2.62-9.54a1.54,1.54,0,0,1-1.15-1.48v-.18C109.86,247,110.43,246.37,111.58,245.8Zm18.16-15.37v10.34q0,3.15,4.86,3.77h2q9.26,0,11.25-6a10.42,10.42,0,0,0,.35-2.34v-1.66q0-5.25-2.52-6.63a19.85,19.85,0,0,0-7.65-1.2h-3.14q-3.6,0-4.92,2.69A3.33,3.33,0,0,0,129.74,230.43Zm30.17-16.79H160q5.43,4.74,5.43,12.68V239q0,5.94-7.71,10.45c-3.85,1.52-6.65,2.29-8.4,2.29q-3,.67-15.19,1.14a2.9,2.9,0,0,0-1.09.57v11.2l-.06.17a2.51,2.51,0,0,1-1.94-2.46V251.69q0-3,5-3,12.57,0,20.28-2.86,5.08-2.75,6.74-6.8a8,8,0,0,0,.46-2.23V224.26A15.81,15.81,0,0,0,159.91,213.64ZM134.6,228.15h2.74q6.63,0,8.23,1.65a8.36,8.36,0,0,1,1.08,4.75v1.31a6.31,6.31,0,0,1-1.54,4.4h-.06a8.49,8.49,0,0,0,.35-2.57c0-2.55-.33-4.13-1-4.74q-1.67-.85-9.37-.86a3,3,0,0,0-2.06.69v9.94a.15.15,0,0,1-.17.17,2.52,2.52,0,0,1-1.83-2.52v-9.31a2.38,2.38,0,0,1,1.6-2.45A4.84,4.84,0,0,1,134.6,228.15Z" transform="translate(0 -23.7)"/><path class="cls-1" d="M167.22,209.3h.11v16.11q0,1.77,3.15,2.28h3.14q3.88.28,3.88,2.57v.46q0,9.6-2.4,11.88v-.06a20.2,20.2,0,0,0,1-7v-3.15c-.34-.49-1.16-.74-2.45-.74h-2.63a5.05,5.05,0,0,1-4.8-2.74,1.58,1.58,0,0,1-.17-.74V211.35A2.85,2.85,0,0,1,167.22,209.3Zm36.51,57.18h.11a3.41,3.41,0,0,1,1.94,2.86v17.88c0,1.52-1.33,2.63-4,3.31a3.34,3.34,0,0,1-.85.12h-.29a102.38,102.38,0,0,0-13.08-1.32c-1.41-.07-2.23-.11-2.46-.11a87,87,0,0,0-13.88,1.43h-.29a4.83,4.83,0,0,1-4.74-2.92l-.11-.51V269a2.78,2.78,0,0,1,1.14-1.89h.11v17.25c0,1.07.86,1.81,2.58,2.23a6.52,6.52,0,0,0,.85.06,82.91,82.91,0,0,1,14-1.37,103.18,103.18,0,0,1,15.71,1.37h.11a3.24,3.24,0,0,0,3.26-1.94V266.94Zm-32.85-58a81.5,81.5,0,0,0,13.94,1.42,115.88,115.88,0,0,0,15.93-1.42h.06a2.3,2.3,0,0,1,1.77.8v16a2.58,2.58,0,0,1-2.28.92h-2.63a5.3,5.3,0,0,0-5,2.51,4.21,4.21,0,0,0-.29,1.37v5.54q0,6.28,3.66,9.49v0a12.28,12.28,0,0,0-2.91,5.89,47.89,47.89,0,0,0-.75,9.6v1.71q0,3.25,5,3.88H200c1.33,0,2.19.29,2.57.86v17.2a2.53,2.53,0,0,1-2.11.85,91.38,91.38,0,0,0-15.83-1.42,77.85,77.85,0,0,0-13.76,1.42c-1.3-.23-1.95-.51-1.95-.85v-17.2c0-.46.84-.74,2.52-.86h2.4c2.43,0,4.11-.91,5-2.74a5.19,5.19,0,0,0,.23-1.31v-4q0-10.11-4.11-13V245q2.34-1.65,3.54-6.51a37.49,37.49,0,0,0,.57-7.71v-.52c0-2.28-1.6-3.64-4.8-4h-3.08a2.59,2.59,0,0,1-2.29-.92v-16A2.42,2.42,0,0,1,170.88,208.5Zm1.82,37.07a7.36,7.36,0,0,1,3.66,4.29,25.55,25.55,0,0,1,1.14,8.8V262a2.22,2.22,0,0,1-1.25,2.23h-.12V262a1.91,1.91,0,0,1,.12-.74,4.15,4.15,0,0,1-.12-.92v-.85q0-8.07-3.71-10-1.83-.63-1.83-2C170.59,246.56,171.29,245.92,172.7,245.57Zm31-36.79c.6,0,1.23.61,1.88,1.83a1.58,1.58,0,0,1,.17.74v16.86q0,1.93-3.08,3.08a4.9,4.9,0,0,1-1.89.4h-2.63c-1.29,0-2.11.25-2.45.74-.08,2.21-.12,3.7-.12,4.46,0,3.28.54,5.71,1.6,7.31q-3.54-2.05-3.54-9.88v-1c0-2.93.17-4.4.52-4.4a4.43,4.43,0,0,1,3.19-1.26H200c2.1,0,3.37-.68,3.83-2.06V209.18Zm-5.2,36.56c1.41.61,2.11,1.34,2.11,2.17s-.65,1.55-1.94,2q-3,2.58-3,11.49v3.37l-.12.17c-1.25-.5-1.88-1.14-1.88-1.94v-3.54q0-11.66,4.51-13.72Z" transform="translate(0 -23.7)"/><path class="cls-1" d="M208.7,209.81h.05v25.82c.35,1.53,1.49,2.29,3.43,2.29h9.08c2,0,3.07-.76,3.37-2.29v-3.71c0-1.94.44-3.1,1.32-3.49a21.75,21.75,0,0,1,5.43-.45h1.25q4.86,0,4.86,2.45c0,.38-.46,1.07-1.37,2.06a3.41,3.41,0,0,0-1.77-.51h-5.09c-1.67,0-2.51.22-2.51.68a10.16,10.16,0,0,0-.17,2.12V238q0,3.25-4.8,3.83a16.76,16.76,0,0,1-1.77.06h-6c-3.73,0-5.89-1.07-6.46-3.2v-27A2.92,2.92,0,0,1,208.7,209.81Zm49.93,42.5h.17a3.21,3.21,0,0,1,1.83,2.8v31.71q0,2.06-3.6,3.2,0,.17-11.77.63h-1a65.57,65.57,0,0,1-10.34-1.32,81.32,81.32,0,0,0-8.63-.51,73.18,73.18,0,0,0-12.62,1.37h-.17a5,5,0,0,1-4.75-2.69,1.52,1.52,0,0,1-.17-.68v-19a2.91,2.91,0,0,1,1.15-2.29h.05V284c0,1.26,1.18,2,3.54,2.29a60.83,60.83,0,0,1,12.8-1.43,90.56,90.56,0,0,1,16.4,1.77q1.48.06,2.91.06,12.73-.4,12.74-.8c1-.54,1.54-1.09,1.54-1.66V252.77ZM222,208.67h1.66q1.24,0,9.08,1.25a59.77,59.77,0,0,0,8.11.52h1A72.48,72.48,0,0,0,255.54,209c1.29.23,1.94.53,1.94.91v17.2q-6,6.51-10.05,11-4.17,5.37-4.17,8.57a7.94,7.94,0,0,1,.06,1v.11h-.06c-2,0-4.23,1.11-6.74,3.31a59.84,59.84,0,0,0-6,8,5.1,5.1,0,0,0-1.77,3.26q0,2.85,4.23,3.65a5.77,5.77,0,0,0,1.37.12h2c4.22,0,6.7-1,7.42-3a8.41,8.41,0,0,0,.63-3.89v-6.34a2.33,2.33,0,0,1,2-.86h9.09a2.31,2.31,0,0,1,2,.86v31a2.57,2.57,0,0,1-2.28.91l-11.26.4a74.45,74.45,0,0,1-9.82-1.31,74.4,74.4,0,0,0-9-.52,56.87,56.87,0,0,0-12.62,1.43,2.47,2.47,0,0,1-2.12-.91v-18.4q9.38-10.58,11.09-14.51a10.59,10.59,0,0,0,1.2-4.63,6.67,6.67,0,0,0-.23-1.54l2.45-.8q3.31-.69,8.8-6.11l4.63-5.6a3.54,3.54,0,0,0,.8-2.06q0-2.85-4.23-3.71c-.53,0-1.08-.06-1.66-.06h-2.45q-5.15,0-6.17,1.2a5.45,5.45,0,0,0-1.14,3.6v4.29a2.54,2.54,0,0,1-2.18.85h-8.91a2.32,2.32,0,0,1-2-.85V209.92a2.2,2.2,0,0,1,1.83-.91Zm-1.54,35.7a3.7,3.7,0,0,1,.68,2.34q0,2.23-2.28,5.72v-.17a7.25,7.25,0,0,0,1-3v-.63a3.85,3.85,0,0,0-1-2l-.11-.52Q219,244.37,220.41,244.37Zm38.22-35.07h.17a3.28,3.28,0,0,1,1.83,2.79v17.83c0,.84-1.15,2.34-3.43,4.51l-6.11,6.63q-4.64,5.59-4.63,7.88a2.1,2.1,0,0,0,.74,1.55v.17c-2.93,0-4.4.87-4.4,2.63v6.28c0,2.09-.4,3.43-1.2,4h-.17a17.07,17.07,0,0,0,.17-2.63v-5.71a2.44,2.44,0,0,1,.46-1.49v-.11q-3.19.68-8.4,9a21,21,0,0,1-1.48,1.83h-.12c-1.37-.49-2.06-1.2-2.06-2.11q0-.47,2.63-3.94a30.69,30.69,0,0,1,5.83-7.14,9.1,9.1,0,0,1,5.6-2.12h1.48V249a3.23,3.23,0,0,1-1-2.34v-.12q0-4.33,11.77-16a23.78,23.78,0,0,0,2.29-2.8.94.94,0,0,0,.05-.34v-17.6Z" transform="translate(0 -23.7)"/><path class="cls-1" d="M263.88,209.81h.06v25.82c.34,1.53,1.48,2.29,3.43,2.29h9.08c1.94,0,3.07-.76,3.37-2.29v-3.71c0-1.94.44-3.1,1.31-3.49a21.75,21.75,0,0,1,5.43-.45h1.26c3.24,0,4.85.82,4.85,2.45,0,.38-.45,1.07-1.37,2.06a3.41,3.41,0,0,0-1.77-.51h-5.08c-1.68,0-2.52.22-2.52.68a10.9,10.9,0,0,0-.17,2.12V238q0,3.25-4.8,3.83a16.49,16.49,0,0,1-1.77.06h-6q-5.6,0-6.45-3.2v-27A2.94,2.94,0,0,1,263.88,209.81Zm49.93,42.5H314a3.21,3.21,0,0,1,1.83,2.8v31.71q0,2.06-3.6,3.2,0,.17-11.77.63h-1a65.43,65.43,0,0,1-10.34-1.32,81.47,81.47,0,0,0-8.63-.51,73.28,73.28,0,0,0-12.63,1.37h-.17a5,5,0,0,1-4.74-2.69,1.52,1.52,0,0,1-.17-.68v-19a2.93,2.93,0,0,1,1.14-2.29h.06V284c0,1.26,1.18,2,3.54,2.29a60.76,60.76,0,0,1,12.8-1.43,90.46,90.46,0,0,1,16.39,1.77c1,0,2,.06,2.92.06q12.74-.4,12.74-.8c1-.54,1.54-1.09,1.54-1.66V252.77Zm-36.67-43.64h1.65q1.26,0,9.09,1.25a59.67,59.67,0,0,0,8.11.52h1A72.64,72.64,0,0,0,310.73,209c1.29.23,1.94.53,1.94.91v17.2q-6.06,6.51-10.05,11-4.19,5.37-4.18,8.57a7.94,7.94,0,0,1,.06,1v.11h-.06c-2,0-4.22,1.11-6.74,3.31a59,59,0,0,0-6,8,5.07,5.07,0,0,0-1.78,3.26q0,2.85,4.23,3.65a5.82,5.82,0,0,0,1.37.12h2q6.35,0,7.43-3a8.41,8.41,0,0,0,.63-3.89v-6.34a2.31,2.31,0,0,1,2-.86h9.08a2.33,2.33,0,0,1,2,.86v31a2.58,2.58,0,0,1-2.29.91l-11.25.4a74.52,74.52,0,0,1-9.83-1.31,74.12,74.12,0,0,0-9-.52,57,57,0,0,0-12.63,1.43,2.47,2.47,0,0,1-2.11-.91v-18.4q9.36-10.58,11.08-14.51a10.59,10.59,0,0,0,1.2-4.63,6.67,6.67,0,0,0-.23-1.54l2.46-.8q3.31-.69,8.8-6.11l4.62-5.6a3.47,3.47,0,0,0,.8-2.06c0-1.9-1.4-3.14-4.22-3.71-.54,0-1.09-.06-1.66-.06h-2.46q-5.13,0-6.17,1.2a5.45,5.45,0,0,0-1.14,3.6v4.29a2.52,2.52,0,0,1-2.17.85h-8.91a2.31,2.31,0,0,1-2-.85V209.92a2.19,2.19,0,0,1,1.83-.91Zm-1.55,35.7a3.64,3.64,0,0,1,.69,2.34q0,2.23-2.29,5.72v-.17a7.1,7.1,0,0,0,1-3v-.63a3.89,3.89,0,0,0-1-2l-.12-.52Q274.17,244.37,275.59,244.37Zm38.22-35.07H314a3.28,3.28,0,0,1,1.83,2.79v17.83q0,1.26-3.43,4.51l-6.11,6.63q-4.62,5.59-4.63,7.88a2.07,2.07,0,0,0,.75,1.55v.17c-2.94,0-4.4.87-4.4,2.63v6.28c0,2.09-.4,3.43-1.2,4h-.17a17.07,17.07,0,0,0,.17-2.63v-5.71a2.44,2.44,0,0,1,.46-1.49v-.11q-3.21.68-8.4,9a19.79,19.79,0,0,1-1.49,1.83h-.11c-1.37-.49-2.06-1.2-2.06-2.11q0-.47,2.63-3.94a30.69,30.69,0,0,1,5.83-7.14,9.08,9.08,0,0,1,5.6-2.12h1.48V249a3.19,3.19,0,0,1-1-2.34v-.12q0-4.33,11.77-16a22.92,22.92,0,0,0,2.28-2.8.74.74,0,0,0,.06-.34v-17.6Z" transform="translate(0 -23.7)"/><path class="cls-1" d="M352,266.65h.12a3.32,3.32,0,0,1,1.94,3v17.26q0,2.85-4.4,3.77h-.8a108.39,108.39,0,0,0-13.31-1.15,77.92,77.92,0,0,0-12.4,1.15h-.4a5,5,0,0,1-4.74-2.8l-.11-.63V269.11a3.12,3.12,0,0,1,1.14-1.94h.11v17.25c.35,1.52,1.49,2.29,3.43,2.29a71.78,71.78,0,0,1,11.83-1.15,99.71,99.71,0,0,1,14.34,1.15c2.24-.35,3.37-1.09,3.37-2.23V267.22Zm-14.11-57.81a112.29,112.29,0,0,0,17.37,1.48h1A120,120,0,0,0,374,208.84h.11a2.31,2.31,0,0,1,1.83.8v15.94a2.32,2.32,0,0,1-2,.85H371.4c-1.41,0-2.11.6-2.11,1.78q3.88,11.7,6.17,14.51A13.46,13.46,0,0,0,379,245.8v.06a6.32,6.32,0,0,0-.8,3.37v.06q0,4.62,4.28,15.08a6,6,0,0,0,4.92,2h1.42a2.59,2.59,0,0,1,2.23.85v17.09a2.49,2.49,0,0,1-2.05.91,82,82,0,0,0-11.89-.91h-.51a123.85,123.85,0,0,0-13.83.91,2.38,2.38,0,0,1-1.94-.91V267.22c.11-.57,1.62-.91,4.51-1q3.44-1.15,3.43-3.55v-.17A57.22,57.22,0,0,0,366.2,255a4.6,4.6,0,0,0-2-2.8,7.84,7.84,0,0,0-3.43-.8H351q-4.17,0-5.37,3.71-2.62,6.75-2.62,7.54c0,1.8,1.35,3,4.05,3.6,2.25,0,3.51.31,3.77.92v17.25a2.55,2.55,0,0,1-2.05.8,90.21,90.21,0,0,0-14.11-1.14h-.12a72.22,72.22,0,0,0-11.88,1.14,2.48,2.48,0,0,1-1.94-.91V267.22a2.57,2.57,0,0,1,2.22-.85h1.38q3.89,0,5.19-2.57,4.41-10.4,4.4-14.51a6.64,6.64,0,0,0-1-3.6v-.17a18.06,18.06,0,0,0,5.72-7.15,89.53,89.53,0,0,0,4.05-10.11c0-1.22-.7-1.83-2.11-1.83H338a2.23,2.23,0,0,1-2-.85V209.64A2.43,2.43,0,0,1,337.92,208.84Zm-7.31,37c1.18.65,1.77,1.92,1.77,3.83q0,3.54-4.51,14l-.46.34v-.17q3.6-8.74,3.6-11.89v-.34a2.31,2.31,0,0,0-1.71-2.46,1.66,1.66,0,0,1-.75-1.19v-.29C328.55,246.71,329.24,246.11,330.61,245.8Zm3.66-36.16h.11v16.11c0,1.26,1.2,2,3.6,2.17h2.8c.11,0,.17.1.17.17v.12q-2.74,8.34-4.91,11.48v-.17a53.85,53.85,0,0,0,3.08-7.54h-.06q-6,0-6-4.69V213.07C333.07,211.28,333.47,210.13,334.27,209.64ZM351,252.88h9.6q3.43,0,4.12,2.75,2.44,6.63,2.45,7v.23c0,.68-.49,1.21-1.48,1.59a51.92,51.92,0,0,0-2.75-7,4.26,4.26,0,0,0-2.45-.52H351.8c-1.63,0-2.57.33-2.8,1a70.79,70.79,0,0,1-2.74,6.85h-.11a3.18,3.18,0,0,1-1.83-1.6v-.68c1.9-5.3,3.05-8.12,3.43-8.46A4.68,4.68,0,0,1,351,252.88Zm-1.59-8c0,1.75,1.23,3,3.71,3.6a4.73,4.73,0,0,0,1.48.22h2.92q3.54,0,4.91-2.68a2.28,2.28,0,0,0,.17-1v-.23q0-.86-3.14-10.45-1.6-4.23-3.37-4.23c-1.52,0-2.9,2.13-4.11,6.4C351.21,238.72,350.36,241.5,349.41,244.89Zm6.34-13.2h.11q1.54,0,4.91,12.34a1.38,1.38,0,0,1,.23.86v.34c0,.46-.4,1-1.2,1.54h-.28a89.74,89.74,0,0,0-3.26-10.11h-.06q-1.49,3.83-3.37,10.34h-.05c-1.38-.42-2.06-1.08-2.06-2q2.63-9.6,4.51-12.85Zm36.44,35h.18a3.32,3.32,0,0,1,1.82,2.8v17.77c0,1.26-1,2.28-3,3.08a5,5,0,0,1-1.77.35h-.34a106.31,106.31,0,0,0-11.71-.86c-3.51,0-8.32.29-14.46.86h-.05A5.26,5.26,0,0,1,358.2,288a6.59,6.59,0,0,1-.17-1.14V269.8a3,3,0,0,1,1.14-2.58h.12v16.63a2.44,2.44,0,0,0,1.65,2.51,6.79,6.79,0,0,0,1.78.35,125.48,125.48,0,0,1,14-.92,94.62,94.62,0,0,1,12.23.92,3.22,3.22,0,0,0,3.25-1.95V267.05Zm-15-57.53h0a3.71,3.71,0,0,1,2,3.66v14.51a4,4,0,0,1-2.63,4.17,11.64,11.64,0,0,1-3.43.52q3,8.69,4.51,10.79s.27.35.69.92v.05q-2.87-1.71-5.66-9.65l-2.11-6,.29-.17h3c2.24-.3,3.37-1,3.37-2ZM381,245.69c1.52.42,2.28,1.06,2.28,1.94v.17c0,.72-.47,1.31-1.43,1.77a6,6,0,0,0-.51,1.94q0,3.5,3.6,13-1.43,0-2.52-4-3-7.65-3-11.08C379.4,247.59,379.93,246.33,381,245.69Z" transform="translate(0 -23.7)"/><path class="cls-1" d="M482.69,216.72q3.82,2.06,3.82,5.66V223a6,6,0,0,1-1.14,3.66c-1.29,1.44-2.46,2.17-3.48,2.17a6.7,6.7,0,0,1,.51,2.22v.06a2.8,2.8,0,0,1-.28,1c-1.07,1.11-1.6,1.92-1.6,2.46v.17a1.67,1.67,0,0,0,.79,1.2v.17q-.22.41-2.28.51a4,4,0,0,1-3.37-1.71,11.94,11.94,0,0,1-.63,2.8Q472.18,245,464.12,245l-1.43-.11q-5.88-1.14-5.88-5.43a4.69,4.69,0,0,1,.23-1.26c.6-1.82,1.58-2.74,2.91-2.74h.46c1.4.5,2.11,1.2,2.11,2.11V238l-.17.29a4.25,4.25,0,0,0-1.09-.29c-.68,0-1.12.44-1.31,1.32v.11c.38,1.41,1.48,2.11,3.31,2.11a5.59,5.59,0,0,0,2.29-.51,5.92,5.92,0,0,0,3-5.37q0-4.74-5.43-7.88-7.2-3.21-11.71-3.6h-.17a4.38,4.38,0,0,1,1.77,3.42l-.17,1a4.56,4.56,0,0,1-4.63,2.86h-.29a.15.15,0,0,1-.17-.17v-.17a3.76,3.76,0,0,0,1.43-2.4v-.29c-.42-1.45-2.45-2.21-6.11-2.28q-8.06,0-18.57,4.34a66,66,0,0,0-9.08,5.25A59,59,0,0,0,404.88,246a63.48,63.48,0,0,0-6.06,9.31v.06l2.57-2.57q11-9.09,20.51-11.66H422a13.63,13.63,0,0,1-1.55-3.94l.17-1.14q1.49-3.43,4.12-3.43c2.55.38,3.82,1.49,3.82,3.31a3.24,3.24,0,0,1-1.31,2.58h-.11c-.23-1.11-.65-1.66-1.26-1.66-.8,0-1.33.53-1.6,1.6l.11.17c.16.76.86,1.14,2.12,1.14a3.57,3.57,0,0,0,3.48-1.88c.12,0,.21.15.29.45a2.72,2.72,0,0,1-.57,1.6v.12A30.14,30.14,0,0,1,443,242.94q3,1,6.74,4.92.86,1.83,4.63,5.25a30,30,0,0,0,17.94,5.6h1.48a31.11,31.11,0,0,0,7.48-1q5.08-1.71,5.09-3.6c0-1-.69-1.6-2.06-1.83H484c-.5,0-.88.35-1.14,1a2.62,2.62,0,0,0,.63,1.37.71.71,0,0,1-.18.35,2.85,2.85,0,0,1-2.51-2.92,3.9,3.9,0,0,0,.12-.85q.79-3.09,3.37-3.09a5.73,5.73,0,0,1,1.77.34,4.1,4.1,0,0,1,1.42-2.51,2.72,2.72,0,0,0,1.78-2.4c0-.34,0-1-.06-2.11.23-.84.57-1.26,1-1.26a1.14,1.14,0,0,1,.57.17c2.24,2.78,3.37,5.39,3.37,7.83a10.46,10.46,0,0,1-3.37,7.42q-7.43,6.24-19.42,6.23h-.58q-12.1,0-20.45-6.57a9.13,9.13,0,0,1,.23,1.94,14.79,14.79,0,0,1-.46,3.15q-3.6,8.79-10.85,8.79a8.1,8.1,0,0,1-6.74-3.2c-.92-2-1.74-3-2.46-3-1.52.34-2.28,1-2.28,2.05,0,.69.57,1.17,1.71,1.43a3.74,3.74,0,0,0,1.66-.8h.17l.28.17a3,3,0,0,1-3,2.46h-.45a7.34,7.34,0,0,1-.8-.06Q424,267,424,264.65a6.9,6.9,0,0,1,.23-1.6q1.32-3.71,4.4-3.71h.74a4.48,4.48,0,0,1,3.55,1.94c.91-1.48,2-2.22,3.14-2.22a4.93,4.93,0,0,1,1.08.17,2.5,2.5,0,0,1,1.83,2.51v.91c0,.46-.11.73-.34.8h-.17c-.35-.64-.65-1-.92-1-.53,0-.85.51-1,1.54q0,1.14,1.83,1.14h.17a7.42,7.42,0,0,0,4.46-1.6,7,7,0,0,0,2.85-5.43v-.91a3.11,3.11,0,0,0-.11-1q-1.2-4.8-4.74-4.8l-.86.11a.21.21,0,0,0-.17-.22s0-.33.06-.86a6.44,6.44,0,0,0-.46-2.34q-2.28-5-9.54-5h-.51a16.35,16.35,0,0,0-3.72.34q-9.13,1.14-19.88,8.11A62.82,62.82,0,0,0,395.79,260h-.28c-.12,0-.17-.06-.17-.18v-.22A93.4,93.4,0,0,1,402,248q9.89-14.5,20.17-20.68a64,64,0,0,1,30.9-8.23,54.63,54.63,0,0,1,16.86,2.8q5.82,2.4,7.31,2.4c1.83-.27,2.74-.91,2.74-1.94V222c-.11-.95-.49-1.43-1.14-1.43-1.18.23-1.77.7-1.77,1.43a1.76,1.76,0,0,0,.23.8l-.23.4a2.26,2.26,0,0,1-1.43-2.06v-.74q1.48-4,4.34-4h1.09A5.44,5.44,0,0,1,482.69,216.72Zm-29.25,7.43v.06h.34v-.06Z" transform="translate(0 -23.7)"/><path class="cls-1" d="M197.25,75.89c3.52,3.76,1.36,10.52-.6,13.68-3.29,5.36-8.9,7.63-13.29,7.21-3.66-.34-8-3.38-10.39-8.77-6.16-14,.63-30.93,6.87-36.91,3-2.89,6.14-4.52,9-3.55a13.33,13.33,0,0,1,5.55,3.37,8.29,8.29,0,0,1,1.85,6.1c-.14,2.47,0,5.45.09,7.68,0,.62-.27,1.21-1.29,1-1.94-.35-3.87-2-4.26-5.7-.42-4,.39-8.76-1.81-9.71-2.69-1.21-10.53,8.39-12.36,20.79-1.78,12.15,3,21.7,7.36,23,5.7,1.67,10.88-5.73,11.78-17.73C195.82,75.48,196.55,75.17,197.25,75.89Z" transform="translate(0 -23.7)"/><path class="cls-1" d="M234.68,82.23c3.38-.32,7.54-6.17,9.37-12,.28-1,1-1.19,1.5-.24s.42,2.63,0,4.45c-.52,2.2-4.82,9-10.47,9.71-4.8.55-8-2.28-7.61-10.15.05-1,.13-1.92.26-2.89a15,15,0,0,1-1.62.34,14.66,14.66,0,0,1-2.52.18c-.86,6-4,13.12-8.61,15.39a7.74,7.74,0,0,1-9.51-1.53c-3.73-3.7-3.68-10.13-1.37-16.19,2-5.28,5.54-10,9.75-11.05,2.09-.56,3.48-.12,5.21,1.57,2.07,2,4.13,2.1,4.6,7.28a22.1,22.1,0,0,1,.08,2.76,18.27,18.27,0,0,0,2-.18,20.66,20.66,0,0,0,2.19-.43,78.68,78.68,0,0,1,12.2-30.7c.82-1.22,1.93-1.62,3-.84,2.23,1.61,3.14,4.09,2.81,7.49a38.63,38.63,0,0,1-4.68,13.52c-2.33,4.1-4.82,7.63-8.25,9.94C231.25,76.29,231.45,82.53,234.68,82.23ZM213.12,63.82a24.13,24.13,0,0,0-4.48,7.51c-2.13,5.81-2.06,12.58,0,13.85s6.18-1.94,8.63-8.9a44.36,44.36,0,0,0,1.54-5.87C215.78,69,213.54,66.45,213.12,63.82Zm5.66-1c-.72-2.22-2.07-1.57-2.09.55a6.29,6.29,0,0,0,2.38,4.87A14,14,0,0,0,218.78,62.77ZM240,56.36c2.39-5,4.23-11.77,3.2-12.26-.86-.37-5,8.18-8.4,18.06-.39,1.15-.72,2.3-1,3.29A31.88,31.88,0,0,0,240,56.36Z" transform="translate(0 -23.7)"/><path class="cls-1" d="M247.52,53.07c-.7-1-.26-1.52.82-1.43a39.6,39.6,0,0,0,6-.19,92.62,92.62,0,0,1,5.62-8.83c.66-.93,1.38-.84,1.73,0,.76,2,.72,4.4-1.08,8.12,2.81,0,3.87,1.29,4.43,2.23s.19,1.38-.89,1.36a21.07,21.07,0,0,0-5.62.19c-2.89,4.78-7.11,11.69-9.95,17.69-2.46,5.21-1.74,9.69,1.28,9.89,3.23.2,7.42-4.85,10.18-10.2.45-.86,1.24-1,1.51,0s0,2.44-.79,4.09c-1,2.07-5.83,8.32-11.58,8-4.75-.23-8.48-5.62-4.88-13.84,1.57-3.57,4.7-9.57,7.89-15.2A5.94,5.94,0,0,1,247.52,53.07Z" transform="translate(0 -23.7)"/><path class="cls-1" d="M299.58,91c-5.85-1.21-6.43-5.88-3.15-11.45,3.82-6.42,11.5-12.63,10.39-13.3-.79-.46-5.12.56-10.65,4.57-5,3.6-9.72,9.68-14,15.71-.32.45-.9.78-1.39-.06-1-1.67-1-4,.92-7.31a67.51,67.51,0,0,1,6.42-8.67,10.73,10.73,0,0,1-6.92.41c-2.65,5.7-8.66,12-14.22,12.65a7.71,7.71,0,0,1-8.28-4.79c-2.24-4.81.1-10.79,4.4-15.64,3.74-4.22,8.8-7.37,13.11-6.85,2.15.22,3.22,1.1,4.24,3.3,1.23,2.61,3.26,3.46,1.78,8.45a7.6,7.6,0,0,1-.33,1.26c4.46.84,10.1-3.36,15.1-8.35.66-.68,1.22-.56,1.51.16.7,2,.2,4.38-1.08,6.69,3.86-2.66,9.29-5.51,11.63-4.74s3.72,4.81,1.21,8c-2.2,2.85-6.56,7.24-9,10.56-2.67,3.64-3,6.89-.27,7.37s7.09-3.39,10.89-7.9a.65.65,0,0,1,1.2.25c.18.92-.12,2.33-1.62,4.29C308.77,89.23,303.74,91.87,299.58,91ZM273.69,61.12a27,27,0,0,0-6.88,5.56c-4.19,4.65-6.53,11-4.95,12.95s6.47.38,11.16-5.27a37.79,37.79,0,0,0,3.85-5.45A8.86,8.86,0,0,1,273.69,61.12Zm5.5,1.13c.12-2.32-1.45-2.21-2.16-.22a5.47,5.47,0,0,0,.72,5.07A14.43,14.43,0,0,0,279.19,62.25Z" transform="translate(0 -23.7)"/><path class="cls-1" d="M317.6,64.81c-.38-.22-.33-.75.19-1.32,2.81-2.7,9.4-8.28,12.66-10,1.24-.61,1.67-.14,1.66.7,0,1.46-1.21,2.78-2.41,3.71a108.86,108.86,0,0,1-10,6.59C318.63,65.12,318,65.05,317.6,64.81Z" transform="translate(0 -23.7)"/><path class="cls-1" d="M323.2,74.25c1.5-2.4,2.72-3.35,4.66-4s3.67-.22,4,.64-.3,1.52-1.84,2.64c-.44.27-.82.58-1.29.91-3.21,5.82-4.3,11.5-6.55,15.93-1.3,2.49-3,5-6.09,5.53,5.13.37,9.68-2.31,12.93-5.1.66-.57,1.22-.07,1.25.57s-.85,2.38-2.89,3.91a15.19,15.19,0,0,1-14.89,1.91c-3.86-1.6-7.08-4.26-7.45-9.34-.23-3.66,1.94-7.9,5-8.71,1.08-.3,1.49.2,1.07,1.28-.17.55-.41,1.08-.58,1.63A139.88,139.88,0,0,0,323.2,74.25ZM309.5,85.89c-.75,4.25-.07,7.8,2.39,8.13,3.43.46,7.14-10.28,9.27-15.64A125.2,125.2,0,0,1,309.5,85.89Z" transform="translate(0 -23.7)"/><path class="cls-1" d="M110.78,350.38c.37-.78.79-.85,1.4-.24,3.58,3.58,10.45,6.26,13.78,9.77,2.53,2.67,3.92,6.11,1,10.25A13.28,13.28,0,0,1,116.15,376a29.54,29.54,0,0,1-13.79-3.07,8.64,8.64,0,0,1-.08,4.59c-.74,2.6-4,5.28-8.62,5.09a24.47,24.47,0,0,1-13.23-5.32c-2.15-1.77-3.21-3.14-3.63-4.86a10.23,10.23,0,0,1,.17-4.94c.52-1.85.93-3.14,5.53-4.84A133.82,133.82,0,0,1,111.73,356,5.39,5.39,0,0,1,110.78,350.38Zm-15,18a8.17,8.17,0,0,1-2.49-3.73,66.15,66.15,0,0,0-11.64,3.5c-2.44,1-2.59,2.18-.89,3.75,3.41,3.16,9.66,6,14.57,5.9,4.25-.1,6.73-2.18,2.79-7.43C97.32,369.72,96.56,369,95.8,368.36Zm29,.18c1.94-3.51-5.19-6.83-9.6-9.61-1.12,1.13-3.1,2.14-6.79,2.9-3,.61-6.9,1.19-11.05,2C109,372.56,122.17,373.07,124.76,368.54Z" transform="translate(0 -23.7)"/><path class="cls-1" d="M104.12,400.08c4.2,4.26,12,3.58,17.47,2.18.65-.18,1.08.21.85.88s-1.7,2-3.93,2.46a18.27,18.27,0,0,1-15.65-3.84c-6.82-6.09-3-14.86,6.68-18.52s17.68-1.44,18.91,2.54a13.35,13.35,0,0,1,.59,5.63c-.22,2.15-3.62,5-8.33,5.64-5.52.79-10.34-1.1-11.27-7.54C103.26,392.82,101.46,397.33,104.12,400.08Zm15.62-8.14c3.74-.66,7.44-2.34,7.24-3.61-.29-1.92-7.61-2.79-14.73-.05-.45.17-.91.34-1.26.51C112.08,392.82,116.35,392.54,119.74,391.94Z" transform="translate(0 -23.7)"/><path class="cls-1" d="M149,435.15c-4.5-3.12-3.76-8.42.84-12.44,3.82-3.3,10.3-5.56,14.75-6.88a16.79,16.79,0,0,1-8.79-2.21c-11.67,7.51-23.06,11.13-30.42,6.75-7.85-4.69-5.79-13.91,3-19.29,8.55-5.2,16.92-4.77,18.88-1.1a13.16,13.16,0,0,1,1.69,5.36c.13,2.11-2.72,5.35-7.1,7-5.19,2-10.24.95-12.4-5.13-5.41,4.36-6.34,9.29-3.29,11.34,6.54,4.48,19.26-1,27.44-6.73-3.5-4.87,7.54-9.31,10.18-7.84,1.94,1.12-1,4.47-5,7.51a19.35,19.35,0,0,0,8.46,1.25c1,0,1.78,0,1.83.87.39,2.11.1,6-3,6.88-4.84,1.4-10.54,3.63-13.63,6.3s-3.9,5.63-2.1,6.82c2.49,1.72,8.12-.39,12.88-3.71.55-.34,1-.2.95.5a6.44,6.44,0,0,1-2.76,3.79C157.65,436.87,152.24,437.42,149,435.15Zm-9-27.53c3.51-1.29,6.77-3.68,6.39-4.85-.63-2-8-1.24-14.34,2.65-.37.19-.76.54-1.13.74C132.72,409.85,136.66,408.82,139.93,407.62Z" transform="translate(0 -23.7)"/><path class="cls-1" d="M198.7,441.89c-3.51-.52-5.34-2.1-5.79-4.44-.12-.7.08-1.17,1-.94,4.37,1.19,10.49.51,14.89,1.32,3.4.64,5,2.6,5.43,4.94,0,.82-.23,1.21-1,.94a24.68,24.68,0,0,0-7.16-1.36c0,2.08-1.3,4.57-4.28,6.93-5.28,4.16-15.22,5.88-20.39-1.59-5.87-8.47,3.34-19.36,15.16-19.71a5.88,5.88,0,0,1-2.73-6.48c1.38-6.93,10.73-11,15.78-11.31,3.84-.21,7.12,0,9.58,3.54,2.34,3.34,2,5.56-.55,8.63-1.51,1.84-3.51,4.46-4.58,6-.35.51-.82.61-1.55,0-1.4-1.24-2-3.85.16-7.09,2.3-3.5,5-5.05,4-6.55-1.58-2.56-16.87,1.82-18.15,8.92-.5,2.84,1.56,3.81,4.3,4.43,3.44.8,4.31,3,4.42,4.24.11.77-.3.89-1,.78-10.54-1.78-20.74,2.4-22.64,9.05a4.92,4.92,0,0,0,3.35,6.42c3.37,1.07,10.2-.39,15.07-6.44C200.81,442.05,199.69,442.07,198.7,441.89Z" transform="translate(0 -23.7)"/><path class="cls-1" d="M257.23,443.06c1.68,4.87-3.06,10.15-6.14,12.23-5.21,3.54-11.25,3.32-15.08,1.13-3.2-1.81-5.89-6.34-5.88-12.25.1-15.27,13.25-28,21.39-30.85,3.92-1.42,7.46-1.61,9.71.46a13.36,13.36,0,0,1,3.68,5.35,8.29,8.29,0,0,1-.81,6.32c-1.14,2.2-2.22,5-3.06,7.05-.24.57-.75,1-1.6.39-1.63-1.12-2.72-3.38-1.55-6.95,1.25-3.79,3.95-7.82,2.33-9.59-2-2.21-13.05,3.34-19.8,13.9-6.6,10.34-6.15,21-2.7,24,4.51,3.86,12.26-.76,18-11.35C256.11,442.1,256.9,442.12,257.23,443.06Z" transform="translate(0 -23.7)"/><path class="cls-1" d="M285.87,440.47c-.84,6.25-4.56,14-9.66,16.34-2.48,1.14-6.09,1.24-9.36-2.17-3.61-3.8-3.21-10.15-.62-16.23,2.19-5.16,6.1-9.79,10.36-10.55,2.21-.38,3.49.13,5.14,1.91,1.89,2,4.09,2.3,4.22,7.5,0,.58.05,1.08,0,1.66.43,0,.84-.23,1.42-.3s.54.31.29.7A3,3,0,0,1,285.87,440.47Zm-6.28-1.13a8.92,8.92,0,0,1-4-5.93,25,25,0,0,0-4.78,7.33c-2.41,5.76-2.76,12.47-.73,13.84s6.28-1.56,9.06-8.53a36.93,36.93,0,0,0,1.88-6A5.57,5.57,0,0,1,279.59,439.34Zm1.74-6.63c-.61-2.25-2-1.67-2.13.45a6,6,0,0,0,2.13,4.91A13.93,13.93,0,0,0,281.33,432.71Z" transform="translate(0 -23.7)"/><path class="cls-1" d="M308.17,425.91c2.17,2.59.25,7-.26,11.09-.08.9-.31,1.18-1.34.9-1.88-.44-3.36-2.31-3.12-5.69.17-2.71,1.56-6.22.4-6.76-1.43-.7-5.62,5-7.27,12.15-2,8.83.87,14.3,5,13.39,5.9-1.32,9.62-8.12,11.45-13.21.22-.65.83-.86,1.28-.23s.48,2.33-.27,4.5a18,18,0,0,1-11.72,10.84c-8.86,2.24-13.93-5.73-11.51-15.85,2.39-9.89,8.58-15.35,12.58-14.07A9.51,9.51,0,0,1,308.17,425.91Z" transform="translate(0 -23.7)"/><path class="cls-1" d="M326.13,413.59c2.21-1.87,4.21-1.49,6.65.8a6.83,6.83,0,0,1,1.66,8.4,23.43,23.43,0,0,1-7.19,9.07c2.41,5.4,5.79,8.49,8.44,7.76,2.85-.81,4.52-7.41,4.91-12.36.09-1,.66-1.26,1.31-.59a5.45,5.45,0,0,1,.8,4.41c-.51,3.44-1.92,8.94-7.24,10.94-4.72,1.77-10.17-.51-13.58-9.61-.47-1.21-.41-1.46.7-2.36,7.24-6,9.39-13.57,7.7-14.92-1.21-.92-3.87,1-6.35,5.11-3.53,5.79-4.25,12.87-4.59,27.23,0,.62-.47,1-1.15.61-1.45-.75-2.63-2.76-2.95-7.35-.51-6.84,2-33.26,4.79-43.7.29-1,.94-1.37,1.66-.73,1.79,1.62,2.7,4.36,1.8,10.36-.54,3.37-1.32,9.09-1.84,13.08A17.42,17.42,0,0,1,326.13,413.59Z" transform="translate(0 -23.7)"/><path class="cls-1" d="M336.13,407.88c-1.11-.54-1-1.19,0-1.64a42.21,42.21,0,0,0,5.12-3.1,93.84,93.84,0,0,1,.56-10.46c.13-1.13.8-1.41,1.52-.82,1.66,1.4,2.79,3.49,3.05,7.6,2.44-1.4,4-.77,5-.22s.84,1.1-.11,1.61a21.49,21.49,0,0,0-4.8,2.93c-.18,5.58-.46,13.67,0,20.29.41,5.76,3.23,9.31,6,8,2.92-1.41,4.1-7.86,3.87-13.88,0-1,.6-1.47,1.33-.72s1.16,2.16,1.32,4c.17,2.29-1,10.12-6.16,12.67-4.25,2.14-10.14-.73-11-9.66-.39-3.88-.61-10.64-.59-17.12A6,6,0,0,1,336.13,407.88Z" transform="translate(0 -23.7)"/><path class="cls-1" d="M368.53,389.39c0-1.14.36-1.59,1.14-1.36,1.64.41,3.92,2.59,4.62,6.52.62,3.55.86,10,1.69,14.14.9,4.33,2.65,6.88,4.56,5.33,2.3-1.85,2.65-8.13,1.79-13.64-.09-.73.27-1.09.89-.73a6.5,6.5,0,0,1,2.08,4c.81,4.31-.55,10.17-3.89,12.32s-6.26,1.41-8.24-1.34c-.15,3.75-1.21,7.8-4,9.83-5.42,3.92-11.89-2.7-12.14-13.26-.24-10.3,2.47-16.26,5.39-18.37,2.51-1.81,5.07-.72,6.6,1.64A48.34,48.34,0,0,1,368.53,389.39Zm-2.95,5.76c-2,1.18-3.51,8.05-3,15.56.53,7.26,3.48,12.94,5.8,11.36s2.77-7.6,2-14.89C369.49,398.1,367.4,394.11,365.58,395.15Z" transform="translate(0 -23.7)"/><path class="cls-1" d="M382.94,375.47c0,1.38-1.63,2.58-3.69,1.94a4.46,4.46,0,0,1-3.35-4.16c0-1.68,2.14-2.46,4.14-1.67A4.33,4.33,0,0,1,382.94,375.47Zm.93,24.7c-2.24-5.08-4.5-14.55-5.08-19.11-.11-1.08.12-1.58,1-1.49,1.57.12,4.1,2,5.27,5.82,1,3.35,2.13,9,3.45,12.68,1.56,4.24,3.57,6.21,5.17,4.54,2.28-2.3,2-8.48.2-13.6-.18-.72.24-1,.84-.78,1.21.46,2.07,1.72,2.66,3.62,1.43,4.75.15,10-2.82,12.78C390.52,408.34,386.39,405.88,383.87,400.17Z" transform="translate(0 -23.7)"/><path class="cls-1" d="M406.1,390.29c2.56-2.34,2.19-9.56,0-15.39-.34-1,.14-1.64,1.08-1.16A6.63,6.63,0,0,1,410,377.3c.9,2.21,1.7,10.13-2.33,14.25-3.48,3.54-7.83,3.14-12.4-3.36-7.36-10.48-11.33-25.36-11.92-35.93-.11-1.58.47-2.42,1.84-2.52,2.8-.25,5,1.24,6.93,4.18,5,7.66,5.81,19.45,4.51,27C399.84,387.82,403.68,392.46,406.1,390.29Zm-16.75-35.61c-1.06.3,1.17,9.64,4.54,19.55a37.7,37.7,0,0,0,1.36,3.62C396.1,365.18,390.41,354.39,389.35,354.68Z" transform="translate(0 -23.7)"/><path class="cls-1" d="M403.2,358.08c-2-2-2.64-3.41-2.8-5.44s.61-3.62,1.52-3.74,1.41.64,2.15,2.39c.17.49.38.93.6,1.46,4.94,4.45,10.22,6.8,14,10,2.13,1.83,4.22,4.08,4,7.19,1.53-4.92-.05-9.95-2-13.75-.41-.77.2-1.21.83-1.09s2.13,1.37,3.15,3.7a15.18,15.18,0,0,1-1.52,14.93c-2.44,3.39-5.75,5.93-10.78,5.14-3.62-.62-7.25-3.69-7.35-6.86-.05-1.12.53-1.4,1.49-.76.5.3,1,.65,1.46.95A142.79,142.79,0,0,0,403.2,358.08Zm8.22,16c4,1.69,7.58,1.85,8.46-.48,1.22-3.23-8.38-9.28-13.12-12.58A126.94,126.94,0,0,1,411.42,374.06Z" transform="translate(0 -23.7)"/></g><g id="Layer_3" data-name="Layer 3"><path class="cls-2" d="M-140,74" transform="translate(0 -23.7)"/><path class="cls-2" d="M-74.5,96.5" transform="translate(0 -23.7)"/><line class="cls-3" y1="167.64" x2="500" y2="166.96"/><line class="cls-3" y1="285.8" x2="500" y2="285.13"/><path class="cls-1" d="M114.65,182a151.45,151.45,0,0,1,270.7,0h6.7A157.48,157.48,0,0,0,108,182Z" transform="translate(0 -23.7)"/><path class="cls-1" d="M385.35,318a151.45,151.45,0,0,1-270.7,0H108a157.48,157.48,0,0,0,284.1,0Z" transform="translate(0 -23.7)"/><path class="cls-1" d="M40.35,182a220.48,220.48,0,0,1,419.3,0h6.29a226.47,226.47,0,0,0-431.89,0Z" transform="translate(0 -23.7)"/><path class="cls-1" d="M459.65,318a220.48,220.48,0,0,1-419.3,0h-6.3a226.47,226.47,0,0,0,431.89,0Z" transform="translate(0 -23.7)"/><path class="cls-4" d="M459.5,318.5" transform="translate(0 -23.7)"/></g></svg>